<svg width="500" height="150" viewBox="0 0 500 150" fill="none" xmlns="http://www.w3.org/2000/svg">
<path d="M47.8359 60.0157C51.7615 61.9266 55.0338 63.7581 58 67C58.4357 66.5901 58.8714 66.1802 59.3203 65.7578C65.323 60.3269 70.3479 58.492 78.4727 58.6875C84.0611 59.3785 88.2598 61.8489 91.9375 66.0625C94.3923 69.5588 95.1264 71.9362 95.1135 76.1043C95.1134 77.3352 95.1134 77.3352 95.1133 78.591C95.1081 79.4724 95.103 80.3537 95.0977 81.2617C95.0962 82.1675 95.0948 83.0733 95.0934 84.0066C95.0878 86.9003 95.0752 89.7939 95.0625 92.6875C95.0575 94.6491 95.0529 96.6107 95.0488 98.5723C95.0387 103.382 95.0191 108.191 95 113C89.06 113 83.12 113 77 113C76.9858 110.604 76.9716 108.207 76.957 105.738C76.9264 103.408 76.8873 101.078 76.8474 98.7483C76.8243 97.1335 76.8098 95.5186 76.8044 93.9036C76.7951 91.5767 76.7541 89.2522 76.707 86.9258C76.711 86.2079 76.7149 85.49 76.7189 84.7503C76.6064 80.854 76.1006 79.1266 73.6472 76.0398C71.1367 73.7839 71.1367 73.7839 67.9375 73.4375C64.2299 74.1475 63.2606 74.9918 61 78C60.5821 80.807 60.3953 83.2385 60.3906 86.0469C60.3741 86.8181 60.3576 87.5893 60.3405 88.3839C60.2921 90.8393 60.2707 93.2942 60.25 95.75C60.2218 97.418 60.1919 99.086 60.1602 100.754C60.083 104.836 60.0424 108.917 60 113C54.06 113 48.12 113 42 113C41.951 110.664 41.902 108.328 41.8516 105.922C41.7975 103.655 41.7402 101.388 41.6826 99.1206C41.6444 97.5475 41.6095 95.9742 41.5781 94.4009C41.5324 92.1368 41.4744 89.8732 41.4141 87.6094C41.4025 86.9082 41.391 86.207 41.3791 85.4846C41.27 81.8612 41.0588 79.045 39 76C35.7863 73.7045 32.8702 73.5163 29 74C26.6921 75.4667 26.6921 75.4667 25 78C24.5821 80.807 24.3953 83.2385 24.3906 86.0469C24.3741 86.8181 24.3576 87.5893 24.3405 88.3839C24.2921 90.8393 24.2707 93.2942 24.25 95.75C24.2218 97.418 24.1919 99.086 24.1602 100.754C24.083 104.836 24.0424 108.917 24 113C18.06 113 12.12 113 6 113C6 95.51 6 78.02 6 60C11.94 60 17.88 60 24 60C24.33 61.65 24.66 63.3 25 65C25.7425 64.3813 26.485 63.7625 27.25 63.125C33.5684 58.2426 40.1964 57.2797 47.8359 60.0157Z" fill="#050505"/>
<path d="M134.125 60.875C136.561 62.1159 138.716 63.4772 141 65C141 63.68 141 62.36 141 61C146.61 61 152.22 61 158 61C158 78.16 158 95.32 158 113C152.39 113 146.78 113 141 113C141 111.02 141 109.04 141 107C139.969 107.784 138.937 108.567 137.875 109.375C131.327 113.98 124.904 115.029 117 114C108.726 111.341 103.827 106.6 99.375 99.3554C97.61 95.0482 97.4238 91.3651 97.4375 86.75C97.4399 85.9068 97.4423 85.0636 97.4448 84.1948C97.6804 76.2139 100.019 71.1751 105.523 65.4023C107 64.0625 107 64.0625 110 62C110.846 61.4019 111.691 60.8037 112.562 60.1875C119.601 57.7562 127.277 57.8825 134.125 60.875Z" fill="#030303"/>
<path d="M297.469 63.5469C303.765 68.1665 308.239 73.2214 310 81C310.934 90.0806 309.223 97.0665 303.625 104.313C296.902 111.196 289.043 114.11 279.5 114.313C268.543 113.927 260.446 111.589 252.625 103.563C247.419 95.3537 246.874 87.5013 248 78C250.656 70.1434 255.881 65.8315 263 62C264.031 61.3813 265.062 60.7625 266.125 60.125C275.67 56.3873 288.895 58.1749 297.469 63.5469Z" fill="#030303"/>
<path d="M219 41C224.94 41 230.88 41 237 41C237 47.27 237 53.54 237 60C240.63 60 244.26 60 248 60C248 64.62 248 69.24 248 74C244.37 74 240.74 74 237 74C237.141 77.2711 237.287 80.5418 237.438 83.8125C237.477 84.7413 237.516 85.67 237.557 86.627C237.599 87.5196 237.64 88.4123 237.684 89.332C237.72 90.1542 237.757 90.9764 237.795 91.8235C237.934 94.1791 237.934 94.1791 239 97C241.31 97 243.62 97 246 97C246.67 98.9571 247.336 100.916 248 102.875C248.371 103.966 248.743 105.056 249.125 106.18C250 109 250 109 250 111C243.164 113.774 236.214 115.672 228.953 113.344C224.067 110.922 222.236 107.729 220 103C218.921 99.7625 218.886 97.4225 218.902 94.0195C218.906 92.8562 218.909 91.6928 218.912 90.4941C218.92 89.2792 218.929 88.0643 218.938 86.8125C218.942 85.586 218.947 84.3594 218.951 83.0957C218.963 80.0638 218.979 77.0319 219 74C216.36 74 213.72 74 211 74C211 69.38 211 64.76 211 60C213.64 60 216.28 60 219 60C219 53.73 219 47.46 219 41Z" fill="#030303"/>
<path d="M191 25C196.94 25 202.88 25 209 25C209 54.04 209 83.08 209 113C203.06 113 197.12 113 191 113C191 83.96 191 54.92 191 25Z" fill="#020202"/>
<path d="M481.621 59.7227C486.6 62.0474 489.672 65.273 492.09 70.2383C493.177 73.5363 493.231 76.2837 493.187 79.75C493.181 80.8999 493.175 82.0497 493.168 83.2344C493 86 493 86 492 87C489.406 87.0885 486.84 87.1153 484.246 87.0977C483.471 87.0963 482.695 87.0949 481.896 87.0934C479.41 87.0878 476.924 87.0752 474.437 87.0625C472.756 87.0575 471.074 87.0529 469.393 87.0489C465.262 87.0378 461.131 87.0205 457 87C457.315 88.439 457.632 89.8778 457.949 91.3164C458.214 92.5183 458.214 92.5183 458.483 93.7444C459.087 96.3817 459.643 98.6439 461 101C463.443 102.311 463.443 102.311 466 103C466.66 103.33 467.32 103.66 468 104C473.956 104.404 477.749 103.883 483 101C484.923 98.9706 484.923 98.9706 486 97C487.65 97.33 489.3 97.66 491 98C491.812 99.625 491.812 99.625 492 102C488.804 106.894 485.652 109.26 480 111C477.245 111.331 474.806 111.525 472.062 111.5C471.36 111.496 470.658 111.491 469.935 111.487C462.47 111.242 458.831 108.755 453.687 103.75C448.393 95.1223 447.949 85.8708 449 76C451.238 68.4644 455.202 64.0541 461.73 59.8985C467.459 57.6309 475.717 58.0948 481.621 59.7227Z" fill="#0C0C0C"/>
<path d="M166 61C171.61 61 177.22 61 183 61C183 77.83 183 94.66 183 112C177.39 112 171.78 112 166 112C166 95.17 166 78.34 166 61Z" fill="black"/>
<path d="M392 59C394.64 59 397.28 59 400 59C402.119 64.4989 404.237 69.9982 406.354 75.4978C407.074 77.369 407.795 79.2401 408.516 81.1111C409.552 83.799 410.586 86.4874 411.621 89.1758C411.944 90.0134 412.267 90.8509 412.6 91.7139C412.9 92.4945 413.2 93.2751 413.51 94.0793C413.774 94.7655 414.038 95.4517 414.31 96.1586C414.91 97.7593 415.459 99.3784 416 101C420.107 91.3679 423.836 81.6122 427.5 71.8064C428.221 69.8766 428.946 67.948 429.672 66.0195C430.096 64.8862 430.519 63.7529 430.956 62.5852C432 60 432 60 433 59C435.671 58.8588 438.324 58.9575 441 59C438.918 65.4297 436.627 71.7567 434.207 78.0664C433.856 78.9859 433.505 79.9054 433.144 80.8527C432.035 83.7567 430.924 86.6596 429.812 89.5625C429.055 91.5448 428.298 93.5273 427.541 95.5097C425.696 100.341 423.849 105.171 422 110C418.37 110 414.74 110 411 110C406.981 100.549 403.272 91.0021 399.641 81.3965C398.676 78.8435 397.704 76.2928 396.732 73.7422C396.117 72.1173 395.502 70.4923 394.887 68.8672C394.596 68.1058 394.306 67.3444 394.006 66.56C392 61.2291 392 61.2291 392 59Z" fill="#0A0A0A"/>
<path d="M345 39C347.31 39 349.62 39 352 39C352.008 39.7701 352.016 40.5402 352.024 41.3336C352.102 48.5878 352.19 55.8419 352.288 63.096C352.337 66.8254 352.384 70.5548 352.422 74.2844C352.459 77.8831 352.505 81.4816 352.558 85.0801C352.577 86.4536 352.592 87.8271 352.603 89.2007C352.62 91.1232 352.65 93.0456 352.681 94.968C352.694 96.0628 352.708 97.1575 352.722 98.2855C352.809 101.219 352.809 101.219 355 104C358.568 104.736 358.568 104.736 362 105C362 106.98 362 108.96 362 111C352.078 111.626 352.078 111.626 347.875 109.188C344.718 105.504 344.877 102.37 344.886 97.6926C344.887 96.3915 344.887 95.0904 344.887 93.7498C344.892 92.3293 344.897 90.9088 344.902 89.4883C344.904 88.0353 344.906 86.5822 344.907 85.1292C344.91 81.3069 344.92 77.4847 344.931 73.6625C344.942 69.7613 344.946 65.8602 344.951 61.959C344.962 54.306 344.979 46.653 345 39Z" fill="#020202"/>
<path d="M285.25 75.6875C288.137 78.115 289.668 79.4752 291 83C291.201 87.5883 290.61 91.012 288.187 94.9375C284.909 98.0283 283.14 98.8734 278.625 99.375C274.329 98.9306 272.322 97.7041 269 95C266.029 90.5442 266.373 86.2256 267 81C271.098 73.8283 277.789 71.8135 285.25 75.6875Z" fill="#F7F7F7"/>
<path d="M135.25 75.6875C138.137 78.115 139.668 79.4752 141 83C141.201 87.5883 140.61 91.012 138.187 94.9375C134.909 98.0283 133.14 98.8734 128.625 99.375C124.329 98.9306 122.322 97.7041 119 95C116.029 90.5442 116.373 86.2256 117 81C121.098 73.8283 127.789 71.8135 135.25 75.6875Z" fill="#F7F7F7"/>
<path d="M329 91C332.072 92.7108 334.405 94.8097 336 98C336.548 102.572 336.642 105.959 334.188 109.937C331.026 112.919 329.537 113.957 325.125 114.312C321.308 114.193 318.97 113.546 316 111C313.385 106.942 312.299 103.809 313 99C316.98 91.8638 321.027 89.6282 329 91Z" fill="#050505"/>
<path d="M180 29C182.936 31.4564 184.606 33.1982 185.438 37C185.661 40.6932 185.108 42.8308 183.125 45.9375C179.638 49.3215 176.964 49.3897 172.262 49.3594C168.675 48.7894 167.132 46.7977 165 44C163.425 40.8509 163.652 38.4799 164 35C168.093 28.127 172.568 26.9497 180 29Z" fill="#060606"/>
<path d="M373 60C375.31 60 377.62 60 380 60C380 76.5 380 93 380 110C377.69 110 375.38 110 373 110C373 93.5 373 77 373 60Z" fill="black"/>
<path d="M476 65C479.654 66.2623 481.414 67.2967 483.875 70.25C485 73 485 73 485 80C476.09 80 467.18 80 458 80C458 72.1101 458 72.1101 460.875 69.125C461.409 68.5501 461.942 67.9752 462.492 67.3828C466.302 63.8893 471.125 64.5881 476 65Z" fill="#FBFBFB"/>
<path d="M376.437 38.6875C379 39 379 39 380.875 40.125C382 42 382 42 381.75 45.125C381 48 381 48 380 49C376.562 49.25 376.562 49.25 373 49C371 46 371 46 371.25 43.4375C372.245 40.2039 373.025 39.125 376.437 38.6875Z" fill="#090909"/>
</svg>
